<svg width="1em" height="1em" viewBox="0 0 40 40" fill="none" xmlns="http://www.w3.org/2000/svg">
<path d="M28.9255 19.9471L26.802 16.6551C26.6779 16.4621 26.6221 16.2332 26.6433 16.0048C27.0744 11.4666 24.0713 7.28883 19.5024 6.06306H19.4922C19.4887 6.06196 19.4851 6.06107 19.4815 6.06039C15.7349 5.17728 11.982 5.55372 8.91397 7.12128C7.79686 7.68962 6.80498 8.47608 5.99691 9.43419C5.18885 10.3923 4.58098 11.5026 4.20923 12.6996C3.83747 13.8966 3.70936 15.1559 3.83247 16.4032C3.95557 17.6505 4.32739 18.8605 4.92597 19.9617C5.0593 20.2239 5.19263 20.4919 5.31974 20.7586C6.84685 23.9444 7.76908 27.1106 8.13885 30.4382V30.4515C8.16889 30.7251 8.27768 30.9841 8.45203 31.1971C8.62638 31.4102 8.85879 31.568 9.12108 31.6515H9.12374L18.6749 34.7031C18.8684 34.7646 19.0728 34.7842 19.2745 34.7604C19.4761 34.7366 19.6704 34.6701 19.8443 34.5652C20.0182 34.4603 20.1677 34.3195 20.2828 34.1522C20.3979 33.9849 20.4759 33.7949 20.5117 33.5951C20.5768 33.2553 20.597 32.9085 20.5717 32.5635C20.5717 32.5573 20.5717 32.5511 20.5717 32.5453C20.509 31.9585 20.5434 31.3653 20.6735 30.7897C20.695 30.6912 20.7367 30.5983 20.796 30.5167C20.8553 30.4352 20.9308 30.3668 21.0179 30.316C21.105 30.2652 21.2017 30.2331 21.3018 30.2216C21.402 30.2101 21.5034 30.2195 21.5997 30.2493L22.0686 30.4102H22.0757L22.0815 30.4124C22.6103 30.5828 23.1728 30.6215 23.7199 30.5251C24.2671 30.4286 24.7824 30.2 25.2211 29.8591C25.6645 29.5178 26.0189 29.0745 26.254 28.5667C26.4891 28.059 26.598 27.5019 26.5713 26.9431C26.8684 26.6743 27.0799 26.3242 27.1797 25.9363C27.2795 25.5483 27.2632 25.1396 27.1326 24.7608C27.3217 24.539 27.4529 24.2737 27.5145 23.9888C27.576 23.7038 27.5661 23.4081 27.4855 23.1279L27.4126 22.8453C27.4709 22.8395 27.5291 22.8328 27.5904 22.8253C27.9049 22.7823 28.2037 22.6613 28.4595 22.4733C28.7153 22.2853 28.92 22.0362 29.0549 21.7488C29.1875 21.4621 29.2453 21.1464 29.2227 20.8313C29.2 20.5161 29.0978 20.2119 28.9255 19.9471ZM24.3477 28.7377C24.0921 28.9363 23.7919 29.0696 23.4732 29.1261C23.1544 29.1826 22.8267 29.1605 22.5184 29.0617L22.0442 28.8986L22.0246 28.8924C21.7404 28.8038 21.4409 28.7751 21.145 28.8083C20.8492 28.8414 20.5634 28.9356 20.3058 29.085C20.0483 29.2343 19.8245 29.4354 19.6487 29.6757C19.473 29.916 19.349 30.1902 19.2846 30.4808C19.1221 31.2029 19.0786 31.9466 19.1557 32.6826C19.1698 32.8969 19.1565 33.1121 19.1162 33.3231C19.1162 33.3306 19.1122 33.3377 19.1109 33.3457C19.1097 33.3462 19.1084 33.3462 19.1073 33.3457L9.5553 30.2946C9.55455 30.2942 9.55391 30.2937 9.55344 30.293C9.55297 30.2923 9.5527 30.2915 9.55263 30.2906C9.55239 30.2887 9.55239 30.2868 9.55263 30.2848C9.55241 30.2828 9.55241 30.2807 9.55263 30.2786C9.16508 26.7897 8.20019 23.4737 6.60286 20.1417C6.46952 19.8639 6.33174 19.5848 6.19263 19.3119L6.1873 19.3031C6.186 19.2999 6.18452 19.2967 6.18285 19.2937C5.67259 18.3591 5.35504 17.3317 5.24902 16.2721C5.143 15.2126 5.25065 14.1426 5.56562 13.1254C5.88058 12.1082 6.39645 11.1646 7.08267 10.3504C7.76889 9.53621 8.61151 8.86797 9.56063 8.38528C12.3255 6.97283 15.7282 6.63728 19.1437 7.43995C23.0349 8.48883 25.5922 12.0306 25.2273 15.8702C25.1764 16.4165 25.3101 16.9642 25.6069 17.4257C25.6069 17.4257 27.7304 20.7173 27.7304 20.7177C27.772 20.7817 27.7966 20.8552 27.8019 20.9314C27.8071 21.0075 27.793 21.0837 27.7606 21.1528C27.727 21.2232 27.6765 21.2842 27.6136 21.3303C27.5507 21.3764 27.4774 21.4063 27.4002 21.4173C27.1214 21.4537 26.8394 21.4595 26.5593 21.4346C26.4459 21.4244 26.3317 21.4416 26.2263 21.4847C26.1209 21.5278 26.0274 21.5956 25.9537 21.6823C25.88 21.7691 25.8282 21.8723 25.8026 21.9833C25.777 22.0942 25.7785 22.2097 25.8069 22.3199L26.1073 23.4848C26.1095 23.4937 26.1122 23.5031 26.1149 23.5119C26.1401 23.5943 26.1343 23.683 26.0986 23.7614C26.0629 23.8397 25.9998 23.9023 25.9211 23.9373C25.8236 23.9837 25.738 24.0518 25.6707 24.1363C25.6035 24.2208 25.5563 24.3195 25.5329 24.4249C25.5095 24.5303 25.5103 24.6397 25.5355 24.7447C25.5606 24.8497 25.6093 24.9477 25.678 25.0311C25.7805 25.1549 25.8312 25.3135 25.8193 25.4739C25.8075 25.6342 25.734 25.7837 25.6144 25.8911C25.4574 26.0329 25.3341 26.2082 25.2537 26.4039C25.1733 26.5996 25.1377 26.8109 25.1495 27.0222C25.1616 27.3512 25.0951 27.6784 24.9557 27.9767C24.8163 28.275 24.6079 28.5359 24.3477 28.7377Z" fill="currentColor"/>
<path d="M31.0461 21.7933C31.0001 21.7112 30.9382 21.6391 30.864 21.5811C30.7899 21.5232 30.705 21.4805 30.6142 21.4555C30.5234 21.4306 30.4286 21.424 30.3353 21.436C30.2419 21.448 30.1519 21.4784 30.0704 21.5255C29.9889 21.5725 29.9175 21.6353 29.8604 21.7102C29.8034 21.785 29.7617 21.8704 29.7379 21.9615C29.7141 22.0526 29.7087 22.1475 29.7218 22.2407C29.735 22.3339 29.7665 22.4235 29.8146 22.5044C30.1784 23.1372 30.3699 23.8543 30.3699 24.5842C30.3699 25.3141 30.1784 26.0313 29.8146 26.664C29.7665 26.7449 29.735 26.8346 29.7218 26.9278C29.7087 27.021 29.7141 27.1159 29.7379 27.2069C29.7617 27.298 29.8034 27.3834 29.8604 27.4583C29.9175 27.5331 29.9889 27.5959 30.0704 27.643C30.1519 27.69 30.2419 27.7205 30.3353 27.7325C30.4286 27.7445 30.5234 27.7378 30.6142 27.7129C30.705 27.688 30.7899 27.6453 30.864 27.5873C30.9382 27.5293 31.0001 27.4572 31.0461 27.3751C31.5346 26.5261 31.7917 25.5637 31.7917 24.5842C31.7917 23.6047 31.5346 22.6424 31.0461 21.7933Z" fill="currentColor"/>
<path d="M32.9407 20.776C32.8946 20.6939 32.8327 20.6218 32.7586 20.5638C32.6844 20.5058 32.5995 20.4631 32.5087 20.4382C32.418 20.4133 32.3232 20.4066 32.2298 20.4186C32.1365 20.4306 32.0464 20.4611 31.9649 20.5081C31.8834 20.5552 31.812 20.618 31.755 20.6928C31.6979 20.7677 31.6563 20.8531 31.6325 20.9442C31.6087 21.0352 31.6032 21.1301 31.6164 21.2233C31.6295 21.3165 31.661 21.4062 31.7091 21.4871C32.2509 22.4292 32.5361 23.497 32.5361 24.5838C32.5361 25.6706 32.2509 26.7383 31.7091 27.6804C31.661 27.7614 31.6295 27.851 31.6164 27.9442C31.6032 28.0374 31.6087 28.1323 31.6325 28.2234C31.6563 28.3144 31.6979 28.3999 31.755 28.4747C31.812 28.5496 31.8834 28.6124 31.9649 28.6594C32.0464 28.7065 32.1365 28.7369 32.2298 28.7489C32.3232 28.7609 32.418 28.7543 32.5087 28.7293C32.5995 28.7044 32.6844 28.6617 32.7586 28.6037C32.8327 28.5458 32.8946 28.4736 32.9407 28.3916C33.607 27.2331 33.9577 25.9202 33.9577 24.5838C33.9577 23.2474 33.607 21.9344 32.9407 20.776Z" fill="currentColor"/>
<path d="M34.8215 19.7675C34.7755 19.6854 34.7136 19.6132 34.6394 19.5553C34.5653 19.4973 34.4804 19.4546 34.3896 19.4297C34.2988 19.4048 34.204 19.3981 34.1107 19.4101C34.0173 19.4221 33.9273 19.4525 33.8458 19.4996C33.7643 19.5466 33.6929 19.6094 33.6358 19.6843C33.5788 19.7591 33.5371 19.8446 33.5133 19.9356C33.4895 20.0267 33.4841 20.1216 33.4972 20.2148C33.5104 20.308 33.5419 20.3976 33.59 20.4786C34.3083 21.7274 34.6863 23.143 34.6863 24.5837C34.6863 26.0244 34.3083 27.4399 33.59 28.6888C33.5419 28.7697 33.5104 28.8594 33.4972 28.9526C33.4841 29.0458 33.4895 29.1406 33.5133 29.2317C33.5371 29.3228 33.5788 29.4082 33.6358 29.4831C33.6929 29.5579 33.7643 29.6207 33.8458 29.6678C33.9273 29.7148 34.0173 29.7452 34.1107 29.7572C34.204 29.7692 34.2988 29.7626 34.3896 29.7377C34.4804 29.7128 34.5653 29.6701 34.6394 29.6121C34.7136 29.5541 34.7755 29.482 34.8215 29.3999C35.6643 27.9347 36.1078 26.274 36.1078 24.5837C36.1078 22.8934 35.6643 21.2327 34.8215 19.7675Z" fill="currentColor"/>
</svg>
