<svg width="1em" height="1em" viewBox="0 0 40 40" fill="none" xmlns="http://www.w3.org/2000/svg">
<path d="M37.6269 14.3312C37.6267 13.2126 37.1822 12.14 36.3913 11.349C35.6004 10.5581 34.5277 10.1136 33.4091 10.1134H33.4047L29.2358 10.149C28.5439 10.15 27.8652 10.3386 27.272 10.6947C26.6788 11.0508 26.1932 11.561 25.8669 12.1712L24.1647 15.309C23.5081 14.7121 22.652 14.3824 21.7647 14.3845H17.5247C16.8567 14.3923 16.2041 14.5862 15.6403 14.9445L14.138 12.1045C13.8125 11.4921 13.3267 10.9797 12.7325 10.622C12.1384 10.2642 11.4582 10.0746 10.7647 10.0734L6.59581 10.0378H6.59136C5.47188 10.0389 4.39856 10.4841 3.60697 11.2757C2.81538 12.0673 2.3702 13.1406 2.36914 14.2601V21.0912C2.36914 21.8112 2.7247 22.4467 3.32025 22.8023C3.62016 22.9803 3.9626 23.074 4.31136 23.0734C4.48717 23.0741 4.6622 23.0502 4.83136 23.0023V33.7778C4.83572 34.3631 5.07232 34.9226 5.48914 35.3334C5.9323 35.7792 6.53203 36.0342 7.16052 36.0442C7.789 36.0541 8.39652 35.8182 8.85358 35.3867C9.30255 35.8086 9.89527 36.0438 10.5114 36.0445C11.8136 36.0445 12.8758 35.0267 12.8758 33.7778L12.8803 18.0001L13.9736 20.089L13.9514 23.1823V23.1912C13.9514 24.1823 14.7825 24.9956 15.8047 25.0045H15.8225C15.9661 25.0039 16.1091 24.9875 16.2491 24.9556L16.2714 33.9956V34.0001C16.2704 34.3598 16.3644 34.7135 16.5439 35.0253C16.7234 35.3371 16.9819 35.596 17.2935 35.7759C17.605 35.9558 17.9586 36.0503 18.3183 36.0499C18.6781 36.0494 19.0314 35.9541 19.3425 35.7734C19.4576 35.7066 19.5662 35.6293 19.6669 35.5423C19.7703 35.6279 19.8803 35.7051 19.9958 35.7734C20.3069 35.9541 20.6602 36.0494 21.02 36.0499C21.3797 36.0503 21.7332 35.9558 22.0448 35.7759C22.3564 35.596 22.6149 35.3371 22.7944 35.0253C22.9739 34.7135 23.0679 34.3598 23.0669 34.0001V24.629C23.2139 24.6645 23.3646 24.6824 23.5158 24.6823H23.5336C24.0049 24.677 24.457 24.4943 24.7997 24.1706C25.1423 23.8469 25.3504 23.4059 25.3825 22.9356V22.9334C25.3818 22.9228 25.3833 22.9122 25.3869 22.9023V22.8667L25.378 21.3645L27.1247 18.0756C27.1247 20.2578 26.6225 22.6267 25.6403 25.1201C25.5891 25.2504 25.5654 25.3899 25.5707 25.5298C25.576 25.6697 25.6102 25.807 25.6711 25.9331C25.7321 26.0592 25.8185 26.1712 25.9248 26.2623C26.0312 26.3534 26.1552 26.4215 26.2891 26.4623C26.9248 26.6566 27.572 26.8109 28.2269 26.9245L28.8714 34.049V34.0578C28.9914 35.1778 29.9869 36.0534 31.1469 36.0534C32.3247 36.0534 33.3025 35.1956 33.4225 34.0623V34.0445L34.0136 26.9112C34.783 26.7751 35.542 26.585 36.2847 26.3423C36.4242 26.297 36.5522 26.2218 36.6597 26.1219C36.7672 26.0221 36.8516 25.9 36.9071 25.7641C36.9625 25.6283 36.9876 25.482 36.9807 25.3354C36.9738 25.1889 36.9349 25.0456 36.8669 24.9156C36.565 24.3313 36.2964 23.7303 36.0625 23.1156C36.2774 23.0723 36.4833 22.9927 36.6714 22.8801C36.9658 22.7042 37.2087 22.4538 37.3757 22.1542C37.5427 21.8546 37.6278 21.5163 37.6225 21.1734V21.1645L37.6269 14.3334V14.3312ZM10.498 34.6245C10.0047 34.6245 9.55136 34.2334 9.55136 33.8023V21.9045C9.55136 21.7159 9.47644 21.535 9.34308 21.4017C9.20972 21.2683 9.02885 21.1934 8.84025 21.1934C8.65165 21.1934 8.47078 21.2683 8.33742 21.4017C8.20406 21.535 8.12914 21.7159 8.12914 21.9045V33.8023C8.12914 34.2334 7.68025 34.6245 7.18247 34.6245C6.72914 34.6245 6.24025 34.2601 6.24025 33.7801L6.23581 15.4223C6.23581 15.2337 6.16089 15.0528 6.02753 14.9195C5.89417 14.7861 5.71329 14.7112 5.5247 14.7112C5.3361 14.7112 5.15522 14.7861 5.02186 14.9195C4.88851 15.0528 4.81359 15.2337 4.81359 15.4223V21.0978C4.81619 21.1935 4.79428 21.2882 4.74994 21.373C4.70559 21.4578 4.6403 21.5299 4.56025 21.5823C4.48039 21.6303 4.38898 21.6556 4.29581 21.6556C4.20264 21.6556 4.11122 21.6303 4.03136 21.5823C3.87136 21.489 3.77803 21.3067 3.77803 21.0934V14.2601C3.7792 13.5186 4.07397 12.8077 4.59785 12.283C5.12174 11.7583 5.83211 11.4624 6.57358 11.4601L10.738 11.4956H10.7425C11.1791 11.4949 11.6077 11.6132 11.9821 11.838C12.3564 12.0628 12.6623 12.3854 12.8669 12.7712L14.5691 15.9845C14.3212 16.3539 14.1462 16.7672 14.0536 17.2023L12.9514 15.0956C12.8676 14.9377 12.7333 14.8124 12.5699 14.7397C12.4065 14.667 12.2236 14.6511 12.0501 14.6946C11.8767 14.7381 11.7228 14.8384 11.6131 14.9796C11.5034 15.1208 11.4441 15.2946 11.4447 15.4734L11.4403 33.7801C11.4403 34.2378 11.0091 34.6245 10.498 34.6245ZM23.5025 23.2601C23.3742 23.2594 23.2512 23.2083 23.1603 23.1178C23.0956 23.0579 23.0573 22.9748 23.0536 22.8867V17.9845C23.0536 17.7959 22.9787 17.615 22.8453 17.4817C22.7119 17.3483 22.5311 17.2734 22.3425 17.2734C22.1539 17.2734 21.973 17.3483 21.8396 17.4817C21.7063 17.615 21.6314 17.7959 21.6314 17.9845V34.0001C21.6316 34.1104 21.603 34.2188 21.5484 34.3147C21.4938 34.4106 21.4152 34.4906 21.3203 34.5467C21.2251 34.6022 21.117 34.6314 21.0069 34.6314C20.8968 34.6314 20.7887 34.6022 20.6936 34.5467C20.4625 34.4134 20.3469 34.2267 20.3469 33.9956V25.5401C20.3469 25.3515 20.272 25.1706 20.1386 25.0372C20.0053 24.9039 19.8244 24.829 19.6358 24.829C19.4472 24.829 19.2663 24.9039 19.133 25.0372C18.9996 25.1706 18.9247 25.3515 18.9247 25.5401V33.9934C18.9247 34.2467 18.8269 34.4201 18.6136 34.5445C18.5179 34.6001 18.4091 34.6292 18.2984 34.6289C18.1878 34.6286 18.0792 34.5989 17.9838 34.5428C17.8884 34.4867 17.8096 34.4063 17.7555 34.3098C17.7013 34.2132 17.6739 34.104 17.6758 33.9934L17.6403 17.949C17.6403 17.7604 17.5653 17.5795 17.432 17.4461C17.2986 17.3128 17.1177 17.2378 16.9291 17.2378C16.7405 17.2378 16.5597 17.3128 16.4263 17.4461C16.293 17.5795 16.218 17.7604 16.218 17.949L16.2314 23.2067C16.2309 23.2526 16.2213 23.2978 16.2029 23.3398C16.1846 23.3818 16.158 23.4197 16.1247 23.4512C16.0399 23.533 15.927 23.5792 15.8091 23.5801H15.8047C15.5914 23.5801 15.3647 23.4201 15.3647 23.189L15.4003 17.9712V17.9623C15.4008 17.3908 15.6281 16.8428 16.0323 16.4387C16.4364 16.0346 16.9843 15.8073 17.5558 15.8067H21.7603C22.0434 15.8066 22.3237 15.8623 22.5853 15.9706C22.8469 16.0789 23.0845 16.2376 23.2847 16.4378C23.4849 16.638 23.6437 16.8757 23.752 17.1373C23.8603 17.3988 23.9159 17.6792 23.9158 17.9623V17.9712L23.9514 22.8423C23.9408 22.9549 23.8892 23.0596 23.8065 23.1367C23.7237 23.2137 23.6155 23.2576 23.5025 23.2601ZM31.9869 33.9045C31.9425 34.309 31.5647 34.6245 31.1247 34.6245C30.6847 34.6245 30.3069 34.309 30.2625 33.9045L29.6491 27.1045C30.1247 27.1445 30.6047 27.1667 31.0847 27.1667C31.5825 27.1667 32.0758 27.1445 32.5691 27.1001L31.9869 33.9045ZM35.9514 21.6556C35.8715 21.703 35.7803 21.728 35.6875 21.7281C35.5946 21.7281 35.5034 21.7032 35.4235 21.656C35.3435 21.6087 35.2777 21.5409 35.233 21.4595C35.1882 21.3781 35.1662 21.2862 35.1691 21.1934V21.1623L35.1336 15.4867C35.1324 15.2989 35.057 15.1192 34.9237 14.9868C34.7905 14.8544 34.6103 14.7801 34.4225 14.7801H34.418C34.3246 14.7806 34.2323 14.7996 34.1462 14.8359C34.0602 14.8722 33.9821 14.925 33.9165 14.9915C33.8509 15.0579 33.799 15.1366 33.7638 15.2231C33.7286 15.3096 33.7108 15.4022 33.7114 15.4956L33.7469 21.1712V21.1801C33.7422 21.4636 33.7998 21.7448 33.9158 22.0036C34.0318 22.2625 34.2032 22.4926 34.418 22.6778C34.6801 23.519 35.0055 24.3391 35.3914 25.1312C32.6906 25.9231 29.8233 25.9523 27.1069 25.2156C28.0491 22.7045 28.5291 20.3001 28.5291 18.0601L28.5425 15.549C28.5431 15.3702 28.4838 15.1963 28.3741 15.0552C28.2643 14.914 28.1105 14.8137 27.937 14.7702C27.7636 14.7267 27.5806 14.7426 27.4173 14.8152C27.2539 14.8879 27.1196 15.0132 27.0358 15.1712L25.338 18.3667L25.3336 17.9623V17.9578C25.3336 17.4958 25.243 17.0383 25.0669 16.6112L27.1069 12.8556V12.8467C27.3115 12.461 27.6174 12.1383 27.9918 11.9136C28.3661 11.6888 28.7947 11.5704 29.2314 11.5712H29.2358L33.4003 11.5356C33.7675 11.5352 34.1312 11.6071 34.4706 11.7475C34.81 11.8878 35.1184 12.0937 35.3781 12.3534C35.6377 12.6131 35.8436 12.9214 35.984 13.2608C36.1243 13.6002 36.1963 13.9639 36.1958 14.3312V21.189C36.2018 21.2817 36.1821 21.3743 36.139 21.4566C36.0959 21.5389 36.031 21.6077 35.9514 21.6556Z" fill="currentColor"/>
<path d="M8.84004 9.11342C9.35085 9.11342 9.85018 8.96192 10.2749 8.67808C10.6996 8.39425 11.0305 7.99083 11.2259 7.51886C11.4213 7.04689 11.4723 6.52758 11.3725 6.02661C11.2727 5.52565 11.0265 5.06555 10.6652 4.70451C10.3038 4.34346 9.84349 4.09771 9.34244 3.99832C8.84139 3.89894 8.32212 3.95039 7.85032 4.14617C7.37852 4.34196 6.97539 4.67327 6.69192 5.09821C6.40845 5.52315 6.25737 6.02261 6.25781 6.53342C6.25969 7.21749 6.53242 7.87296 7.01634 8.35646C7.50026 8.83997 8.15597 9.11213 8.84004 9.11342ZM8.84004 5.3712C9.06937 5.3712 9.29355 5.43918 9.48427 5.56654C9.67498 5.6939 9.82366 5.87494 9.91152 6.08677C9.99938 6.29861 10.0225 6.53173 9.97791 6.75669C9.93333 6.98164 9.82307 7.18834 9.66106 7.35066C9.49906 7.51297 9.29257 7.62363 9.0677 7.66864C8.84283 7.71365 8.60966 7.69099 8.39766 7.60353C8.18566 7.51608 8.00434 7.36774 7.87661 7.17728C7.74888 6.98681 7.68048 6.76275 7.68004 6.53342C7.67986 6.38093 7.70973 6.2299 7.76794 6.08896C7.82614 5.94802 7.91154 5.81993 8.01927 5.712C8.12699 5.60407 8.25492 5.51842 8.39575 5.45995C8.53658 5.40147 8.68755 5.37131 8.84004 5.3712Z" fill="currentColor"/>
<path d="M19.6442 13.46C20.1285 13.46 20.602 13.3164 21.0047 13.0473C21.4074 12.7782 21.7213 12.3958 21.9067 11.9483C22.092 11.5008 22.1405 11.0084 22.046 10.5334C21.9515 10.0584 21.7183 9.622 21.3758 9.27952C21.0333 8.93704 20.597 8.7038 20.122 8.60931C19.6469 8.51482 19.1545 8.56332 18.7071 8.74867C18.2596 8.93402 17.8771 9.2479 17.608 9.65062C17.3389 10.0533 17.1953 10.5268 17.1953 11.0111C17.1958 11.6605 17.4539 12.2831 17.9131 12.7423C18.3722 13.2014 18.9949 13.4596 19.6442 13.46ZM19.6442 9.98448C19.8473 9.98448 20.0458 10.0447 20.2146 10.1575C20.3834 10.2703 20.515 10.4307 20.5927 10.6183C20.6704 10.8059 20.6908 11.0123 20.6511 11.2114C20.6115 11.4106 20.5137 11.5935 20.3702 11.7371C20.2266 11.8807 20.0436 11.9785 19.8445 12.0181C19.6453 12.0577 19.4389 12.0374 19.2513 11.9597C19.0637 11.882 18.9034 11.7504 18.7906 11.5815C18.6777 11.4127 18.6175 11.2142 18.6175 11.0111C18.6184 10.7391 18.7268 10.4784 18.9191 10.2861C19.1115 10.0937 19.3722 9.9853 19.6442 9.98448Z" fill="currentColor"/>
<path d="M31.1252 9.21987C31.6359 9.21987 32.1352 9.06842 32.5598 8.78468C32.9844 8.50094 33.3154 8.09766 33.5109 7.62582C33.7063 7.15398 33.7574 6.63478 33.6578 6.13388C33.5582 5.63297 33.3122 5.17287 32.9511 4.81174C32.59 4.45061 32.1299 4.20467 31.629 4.10504C31.1281 4.0054 30.6089 4.05654 30.137 4.25198C29.6652 4.44742 29.2619 4.77839 28.9782 5.20304C28.6944 5.62768 28.543 6.12693 28.543 6.63764C28.5443 7.32209 28.8167 7.97814 29.3007 8.46212C29.7847 8.9461 30.4407 9.21857 31.1252 9.21987ZM31.1252 5.47764C31.3546 5.47764 31.5789 5.54568 31.7697 5.67314C31.9604 5.8006 32.1091 5.98177 32.1969 6.19373C32.2847 6.40569 32.3077 6.63893 32.2629 6.86395C32.2181 7.08897 32.1077 7.29566 31.9454 7.45789C31.7832 7.62012 31.5765 7.7306 31.3515 7.77535C31.1265 7.82011 30.8932 7.79714 30.6813 7.70934C30.4693 7.62155 30.2881 7.47287 30.1607 7.28211C30.0332 7.09134 29.9652 6.86707 29.9652 6.63764C29.9654 6.33006 30.0877 6.03515 30.3052 5.81766C30.5227 5.60017 30.8176 5.47788 31.1252 5.47764Z" fill="currentColor"/>
</svg>
