<svg width="1em" height="1em" viewBox="0 0 40 40" fill="none" xmlns="http://www.w3.org/2000/svg">
<path d="M11.2619 18.18H11.2659L12.9819 18.744C13.2939 18.848 13.6179 18.896 13.9419 18.896C14.3419 18.896 14.7379 18.82 15.1139 18.668C15.5099 18.504 15.8659 18.264 16.1619 17.96V19.448H15.1019C14.7259 19.448 14.4219 19.752 14.4219 20.128C14.4219 20.504 14.7259 20.808 15.1019 20.808H24.8579C25.2339 20.808 25.5379 20.504 25.5379 20.128C25.5379 19.752 25.2339 19.448 24.8579 19.448H23.8099V17.964C24.3899 18.56 25.1859 18.9 26.0139 18.9C26.3339 18.9 26.6619 18.848 26.9819 18.744L28.7059 18.18C28.7059 18.18 28.7059 18.18 28.7099 18.18C29.2939 17.988 29.7339 17.496 29.8619 16.892C29.9899 16.288 29.7819 15.656 29.3219 15.244C28.8619 14.832 28.2379 14.704 27.6419 14.896H27.6379L26.2059 15.36L24.8619 12.768C24.4659 12.008 23.6859 11.532 22.8259 11.532H17.1459C16.2859 11.532 15.5059 12.004 15.1099 12.768L13.7659 15.36L12.3339 14.896H12.3299C11.7379 14.704 11.0859 14.836 10.6299 15.244C10.1699 15.656 9.96191 16.288 10.0899 16.892C10.2219 17.492 10.6699 17.984 11.2619 18.18ZM11.5419 16.26C11.6379 16.176 11.7819 16.148 11.9139 16.192L13.5899 16.736C13.6019 16.74 13.6139 16.744 13.6259 16.744C13.7259 16.772 13.8259 16.788 13.9259 16.788C14.3099 16.788 14.6699 16.58 14.8579 16.224L16.3219 13.4C16.4819 13.092 16.8019 12.9 17.1539 12.9H22.8339C23.1859 12.9 23.5019 13.092 23.6659 13.4L25.1299 16.224C25.3139 16.58 25.6779 16.788 26.0619 16.788C26.1579 16.788 26.2579 16.772 26.3539 16.748C26.3659 16.744 26.3819 16.74 26.3939 16.736L28.0699 16.192C28.2019 16.148 28.3259 16.172 28.4219 16.26C28.5219 16.348 28.5659 16.484 28.5379 16.612C28.5099 16.744 28.4179 16.848 28.2939 16.888L26.5659 17.452C25.7579 17.716 24.8859 17.36 24.4939 16.604L23.8779 15.424V15.42C23.8779 15.416 23.8739 15.416 23.8739 15.412C23.7099 15.1 23.3619 14.94 23.0259 15.024C22.6899 15.108 22.4619 15.404 22.4619 15.764V19.448H17.5299V15.764C17.5299 15.412 17.2939 15.108 16.9579 15.024C16.6259 14.944 16.2779 15.1 16.1139 15.412C16.1139 15.416 16.1099 15.416 16.1099 15.416L15.4939 16.6C15.0979 17.36 14.2259 17.716 13.4099 17.448L11.6939 16.884C11.5619 16.84 11.4539 16.732 11.4299 16.608C11.3979 16.484 11.4419 16.348 11.5419 16.26Z" fill="currentColor"/>
<path d="M33.8387 30.004C33.8387 28.988 33.4547 28.036 32.7587 27.32C32.0547 26.596 31.1067 26.196 30.0907 26.196H28.8467H27.5707H26.4267C24.4667 26.196 22.8467 27.688 22.6467 29.596H17.3307C17.3267 29.552 17.3187 29.508 17.3147 29.46C17.3107 29.444 17.3107 29.428 17.3067 29.412C17.3027 29.376 17.2947 29.34 17.2867 29.304C17.1507 28.552 16.8027 27.864 16.2627 27.312C15.5547 26.588 14.6067 26.188 13.5907 26.188H13.5427H12.4027H11.1387H9.89467C9.89067 26.188 9.88267 26.188 9.87867 26.188C9.86667 26.188 9.85467 26.188 9.84267 26.188C7.79067 26.24 6.13867 27.924 6.13867 29.988V29.992V33.404C6.13867 34.016 6.63467 34.512 7.24667 34.512H16.2747C16.8707 34.512 17.3507 34.028 17.3507 33.436V33.404V30.944H22.6347V33.404V33.436C22.6347 34.032 23.1187 34.512 23.7107 34.512H32.7307C33.3427 34.512 33.8387 34.016 33.8387 33.404V30.004ZM28.8507 27.556H30.0947C31.4307 27.556 32.4787 28.632 32.4787 30.004V33.164H31.2587V30.288C31.2587 29.98 31.0067 29.728 30.6987 29.728C30.3907 29.728 30.1387 29.98 30.1387 30.288V33.164H26.3307V30.288C26.3307 29.98 26.0787 29.728 25.7707 29.728C25.4627 29.728 25.2107 29.98 25.2107 30.288V33.164H23.9907V30.004C23.9907 28.652 25.0827 27.556 26.4227 27.556H27.5667H28.8507ZM12.4027 27.556H13.5467C14.1987 27.556 14.8107 27.812 15.2747 28.272C15.6747 28.672 15.9147 29.18 15.9747 29.732C15.9747 29.74 15.9787 29.748 15.9787 29.756C15.9787 29.764 15.9787 29.772 15.9787 29.78C15.9867 29.852 15.9867 29.928 15.9867 30.004V33.164H14.7667V30.288C14.7667 29.98 14.5147 29.728 14.2067 29.728C13.8987 29.728 13.6467 29.98 13.6467 30.288V33.164H9.82667V30.288C9.82667 29.98 9.57467 29.728 9.26667 29.728C8.95867 29.728 8.70667 29.98 8.70667 30.288V33.164H7.48667V30.004C7.48667 28.652 8.58267 27.556 9.93067 27.556H11.1307H12.4027Z" fill="currentColor"/>
<path d="M19.9828 11.0521C21.5068 11.0521 22.7508 9.81211 22.7508 8.28411C22.7508 6.76011 21.5108 5.51611 19.9828 5.51611C18.4588 5.51611 17.2148 6.75611 17.2148 8.28411C17.2148 9.81211 18.4548 11.0521 19.9828 11.0521ZM19.9828 6.88011C20.7588 6.88011 21.3908 7.51211 21.3908 8.28811C21.3908 9.06411 20.7588 9.69611 19.9828 9.69611C19.2068 9.69611 18.5748 9.06411 18.5748 8.28811C18.5748 7.50811 19.2068 6.88011 19.9828 6.88011Z" fill="currentColor"/>
<path d="M11.77 25.6683C13.294 25.6683 14.538 24.4283 14.538 22.9003C14.538 21.3723 13.298 20.1323 11.77 20.1323C10.246 20.1323 9.00195 21.3723 9.00195 22.9003C9.00195 24.4283 10.242 25.6683 11.77 25.6683ZM11.77 21.4923C12.546 21.4923 13.178 22.1243 13.178 22.9003C13.178 23.6763 12.546 24.3083 11.77 24.3083C10.994 24.3083 10.362 23.6763 10.362 22.9003C10.362 22.1243 10.994 21.4923 11.77 21.4923Z" fill="currentColor"/>
<path d="M25.4375 22.9003C25.4375 24.4243 26.6775 25.6683 28.2055 25.6683C29.7295 25.6683 30.9735 24.4283 30.9735 22.9003C30.9735 21.3723 29.7335 20.1323 28.2055 20.1323C26.6775 20.1323 25.4375 21.3723 25.4375 22.9003ZM29.6135 22.9003C29.6135 23.6763 28.9815 24.3083 28.2055 24.3083C27.4295 24.3083 26.7975 23.6763 26.7975 22.9003C26.7975 22.1243 27.4295 21.4923 28.2055 21.4923C28.9815 21.4923 29.6135 22.1243 29.6135 22.9003Z" fill="currentColor"/>
</svg>
