<svg width="1em" height="1em" viewBox="0 0 40 40" fill="none" xmlns="http://www.w3.org/2000/svg">
<g clip-path="url(#clip0_5115_6945)">
<path d="M20.0205 15.5596C18.2045 15.5596 16.7285 17.0357 16.7285 18.8516C16.7285 20.6675 18.2045 22.1436 20.0205 22.1436C21.8366 22.1436 23.3126 20.6676 23.3126 18.8516C23.3126 17.0356 21.8366 15.5596 20.0205 15.5596ZM20.0205 20.7837C18.9565 20.7837 18.0885 19.9157 18.0885 18.8517C18.0885 17.7876 18.9525 16.9196 20.0205 16.9196C21.0845 16.9196 21.9526 17.7876 21.9526 18.8517C21.9526 19.9157 21.0846 20.7837 20.0205 20.7837Z" fill="currentColor"/>
<path d="M27.0041 26.1191C27.0041 26.1172 27.0041 26.1162 27.0041 26.1162C27.0041 26.1135 27.0041 26.1112 27.0041 26.1112V26.1072C26.7162 24.0512 25.0121 22.4832 22.9401 22.3672H22.9362C22.9282 22.3672 22.9201 22.3672 22.9122 22.3672C22.9082 22.3672 22.9001 22.3672 22.8962 22.3672C22.8841 22.3672 22.8682 22.3672 22.8562 22.3672C22.8482 22.3672 22.8362 22.3672 22.8282 22.3672C22.8162 22.3672 22.8002 22.3712 22.7882 22.3712C22.7802 22.3712 22.7682 22.3752 22.7602 22.3752C22.7482 22.3791 22.7362 22.3791 22.7202 22.3831C22.7122 22.3871 22.7042 22.3871 22.6962 22.3911C22.6842 22.3951 22.6722 22.3991 22.6562 22.4031C22.6483 22.4071 22.6402 22.4071 22.6322 22.4111C22.6202 22.4151 22.6083 22.4231 22.5962 22.4271C22.5883 22.4311 22.5802 22.4351 22.5722 22.4391C22.5602 22.4471 22.5483 22.4512 22.5362 22.4591C22.5283 22.4631 22.5202 22.4671 22.5122 22.4752C22.5002 22.4831 22.4922 22.4872 22.4802 22.4952C22.4722 22.4991 22.4642 22.5072 22.4562 22.5152C22.4522 22.5191 22.4442 22.5231 22.4402 22.5272L20.0122 24.5632L17.5843 22.5272C17.5803 22.5232 17.5722 22.5192 17.5683 22.5152C17.5603 22.5072 17.5483 22.4991 17.5403 22.4952C17.5323 22.4872 17.5243 22.4831 17.5123 22.4752C17.5044 22.4672 17.4923 22.4631 17.4844 22.4591C17.4764 22.4552 17.4644 22.4471 17.4523 22.4431C17.4444 22.4391 17.4323 22.4352 17.4244 22.4311C17.4123 22.4271 17.4044 22.4231 17.3923 22.4191C17.3844 22.4151 17.3723 22.4111 17.3644 22.407C17.3523 22.403 17.3444 22.3991 17.3323 22.395C17.3203 22.391 17.3123 22.391 17.3003 22.387C17.2883 22.383 17.2763 22.383 17.2683 22.3791C17.2562 22.3791 17.2483 22.3751 17.2362 22.3751C17.2242 22.3751 17.2122 22.3711 17.2002 22.3711C17.1882 22.3711 17.1802 22.3711 17.1682 22.3711C17.1562 22.3711 17.1442 22.3711 17.1322 22.3711C17.1242 22.3711 17.1201 22.3711 17.1122 22.3711C17.1042 22.3711 17.0962 22.3711 17.0882 22.3711H17.0842C15.0122 22.4871 13.3082 24.0551 13.0202 26.1111V26.1151C13.0202 26.1191 13.0202 26.1191 13.0202 26.123C12.7842 27.711 12.8042 29.3151 13.0842 30.8951C13.1882 31.4911 13.7042 31.923 14.3122 31.923H25.7322C26.3362 31.923 26.8522 31.491 26.9601 30.8951C27.2322 29.3391 27.2481 27.7351 27.0041 26.1191ZM25.6361 30.5552H24.124L24.2001 27.1313C24.208 26.8233 23.9601 26.5673 23.6521 26.5592C23.3401 26.5512 23.0881 26.7992 23.0801 27.1072L23.004 30.5592H17.024L16.9361 27.1072C16.9281 26.7992 16.6721 26.5552 16.3601 26.5632C16.0521 26.5712 15.808 26.8272 15.8161 27.1392L15.904 30.5632H14.412C14.172 29.1592 14.16 27.7312 14.372 26.3152V26.3113V26.3073C14.548 24.9633 15.608 23.9233 16.928 23.7433L19.576 25.9633C19.58 25.9673 19.584 25.9712 19.592 25.9753C19.6 25.9833 19.608 25.9873 19.616 25.9913C19.628 25.9993 19.64 26.0073 19.652 26.0153C19.66 26.0193 19.668 26.0233 19.672 26.0273C19.712 26.0513 19.752 26.0673 19.796 26.0834C19.8 26.0834 19.808 26.0873 19.812 26.0873C19.828 26.0913 19.844 26.0953 19.86 26.0994C19.868 26.0994 19.872 26.1034 19.88 26.1034C19.896 26.1073 19.912 26.1113 19.932 26.1113C19.936 26.1113 19.944 26.1113 19.948 26.1153C19.972 26.1193 19.992 26.1193 20.016 26.1193C20.04 26.1193 20.06 26.1193 20.084 26.1153C20.088 26.1153 20.096 26.1153 20.1 26.1113C20.116 26.1073 20.132 26.1073 20.152 26.1034C20.16 26.1034 20.164 26.0994 20.172 26.0994C20.188 26.0954 20.204 26.0914 20.22 26.0873C20.224 26.0873 20.232 26.0834 20.236 26.0834C20.28 26.0673 20.32 26.0513 20.36 26.0273C20.368 26.0234 20.376 26.0194 20.38 26.0153C20.392 26.0073 20.404 25.9993 20.416 25.9913C20.424 25.9873 20.432 25.9793 20.44 25.9753C20.444 25.9713 20.448 25.9673 20.456 25.9633L23.104 23.7433C24.424 23.9233 25.48 24.9633 25.664 26.2993V26.3033V26.3073C25.8801 27.7472 25.8721 29.1752 25.6361 30.5552Z" fill="currentColor"/>
<path d="M12.2237 8.13135C10.4077 8.13135 8.93164 9.60736 8.93164 11.4234C8.93164 13.2394 10.4077 14.7154 12.2237 14.7154C14.0397 14.7154 15.5157 13.2394 15.5157 11.4234C15.5157 9.60736 14.0397 8.13135 12.2237 8.13135ZM12.2237 13.3554C11.1597 13.3554 10.2916 12.4874 10.2916 11.4234C10.2916 10.3593 11.1596 9.49135 12.2237 9.49135C13.2877 9.49135 14.1557 10.3593 14.1557 11.4234C14.1557 12.4874 13.2877 13.3554 12.2237 13.3554Z" fill="currentColor"/>
<path d="M17.1969 15.5757C16.5769 15.1957 15.8649 14.9757 15.1369 14.9397C15.129 14.9397 15.1249 14.9397 15.1209 14.9397C15.1089 14.9397 15.0969 14.9397 15.0849 14.9397C15.0769 14.9397 15.0649 14.9397 15.0569 14.9397C15.0449 14.9397 15.033 14.9437 15.0209 14.9437C15.013 14.9437 15.0009 14.9477 14.993 14.9477C14.9809 14.9517 14.969 14.9517 14.9569 14.9556C14.949 14.9596 14.9369 14.9596 14.929 14.9636C14.9169 14.9676 14.905 14.9716 14.893 14.9756C14.885 14.9796 14.8769 14.9796 14.869 14.9836C14.8569 14.9876 14.845 14.9916 14.833 14.9996C14.825 15.0036 14.8169 15.0076 14.809 15.0117C14.7969 15.0156 14.785 15.0237 14.773 15.0317C14.765 15.0356 14.7569 15.0396 14.749 15.0477C14.7369 15.0556 14.729 15.0597 14.7169 15.0677C14.709 15.0717 14.7009 15.0797 14.693 15.0877C14.689 15.0917 14.6809 15.0956 14.6769 15.0997L12.2369 17.1477L9.80897 15.1037C9.80498 15.0997 9.79694 15.0957 9.79295 15.0917C9.78498 15.0837 9.77295 15.0756 9.76498 15.0717C9.75701 15.0637 9.74498 15.0596 9.73701 15.0517C9.72905 15.0477 9.71701 15.0396 9.70905 15.0356C9.69701 15.0317 9.68905 15.0236 9.67701 15.0196C9.66905 15.0156 9.65701 15.0117 9.64905 15.0076C9.63701 15.0036 9.62905 14.9996 9.61701 14.9956C9.60905 14.9916 9.59701 14.9876 9.58905 14.9835C9.57701 14.9795 9.56506 14.9756 9.55701 14.9715C9.54498 14.9675 9.53701 14.9675 9.52498 14.9635C9.51295 14.9595 9.501 14.9595 9.48897 14.9556C9.47694 14.9556 9.46897 14.9516 9.45694 14.9516C9.4449 14.9516 9.43295 14.9476 9.42092 14.9476C9.40889 14.9476 9.40092 14.9476 9.38889 14.9476C9.37686 14.9476 9.3649 14.9476 9.35287 14.9476C9.3449 14.9476 9.34084 14.9476 9.33287 14.9476C9.3249 14.9476 9.32084 14.9476 9.31287 14.9476H9.30889C7.23686 15.0636 5.52889 16.6316 5.24092 18.6876V18.6916C5.24092 18.6956 5.24092 18.6956 5.24092 18.6995C5.0049 20.2916 5.0249 21.9035 5.3049 23.4835C5.40889 24.0795 5.9249 24.5115 6.53287 24.5115H12.9649C13.3169 24.5036 13.625 24.1996 13.625 23.8236C13.625 23.4476 13.321 23.1436 12.945 23.1436H9.22498L9.14897 19.7196C9.141 19.4117 8.88498 19.1676 8.57694 19.1717C8.26897 19.1796 8.02092 19.4356 8.02897 19.7437L8.10498 23.1437H6.60897C6.36897 21.7317 6.35295 20.2997 6.56897 18.8837V18.8797V18.8757C6.75295 17.5357 7.80897 16.4957 9.12897 16.3197L11.7769 18.5517C11.7809 18.5557 11.789 18.5597 11.793 18.5638C11.8009 18.5717 11.809 18.5758 11.8169 18.5798C11.829 18.5877 11.8409 18.5958 11.853 18.6038C11.8609 18.6077 11.869 18.6117 11.873 18.6158C11.893 18.6278 11.913 18.6358 11.933 18.6478H11.9369C11.9569 18.6558 11.9769 18.6638 11.9969 18.6718C12.0009 18.6718 12.009 18.6758 12.013 18.6758C12.029 18.6798 12.045 18.6838 12.0609 18.6878C12.0689 18.6878 12.073 18.6918 12.0809 18.6918C12.0969 18.6958 12.113 18.6958 12.133 18.6998C12.1369 18.6998 12.145 18.6998 12.149 18.7038C12.173 18.7077 12.193 18.7077 12.2169 18.7077C12.2409 18.7077 12.2609 18.7077 12.2849 18.7038C12.2889 18.7038 12.2969 18.7038 12.3009 18.6998C12.3169 18.6958 12.333 18.6958 12.353 18.6918C12.3609 18.6918 12.365 18.6878 12.373 18.6878C12.389 18.6838 12.405 18.6799 12.4209 18.6758C12.4249 18.6758 12.433 18.6718 12.4369 18.6718C12.4569 18.6638 12.4769 18.6558 12.4969 18.6478H12.5009C12.5209 18.6399 12.5409 18.6278 12.5609 18.6158C12.5689 18.6118 12.5769 18.6078 12.5809 18.6038C12.593 18.5958 12.6049 18.5877 12.6169 18.5798C12.6249 18.5758 12.633 18.5677 12.6409 18.5638C12.6449 18.5598 12.653 18.5558 12.6569 18.5517L15.3209 16.3197C15.733 16.3757 16.1289 16.5157 16.4849 16.7357C16.5969 16.8037 16.7169 16.8357 16.8409 16.8357C17.0689 16.8357 17.293 16.7197 17.4209 16.5117C17.6169 16.1917 17.5169 15.7717 17.1969 15.5757Z" fill="currentColor"/>
<path d="M27.8037 8.13184C25.9877 8.13184 24.5117 9.60785 24.5117 11.4239C24.5117 13.2399 25.9877 14.7159 27.8037 14.7159C29.6198 14.7159 31.0958 13.2399 31.0958 11.4239C31.0958 9.60785 29.6198 8.13184 27.8037 8.13184ZM27.8037 13.3559C26.7397 13.3559 25.8717 12.4879 25.8717 11.4239C25.8717 10.3598 26.7398 9.49184 27.8037 9.49184C28.8677 9.49184 29.7358 10.3598 29.7358 11.4239C29.7358 12.4879 28.8678 13.3559 27.8037 13.3559Z" fill="currentColor"/>
<path d="M34.8076 18.6914C34.8076 18.6914 34.8076 18.6904 34.8076 18.6899C34.8076 18.6866 34.8076 18.6834 34.8076 18.6834V18.6795C34.5197 16.6234 32.8156 15.0555 30.7437 14.9395H30.7397C30.7317 14.9395 30.7237 14.9395 30.7157 14.9395C30.7077 14.9395 30.7037 14.9395 30.6957 14.9395C30.6837 14.9395 30.6717 14.9395 30.6597 14.9395C30.6476 14.9395 30.6397 14.9395 30.6276 14.9395C30.6156 14.9395 30.6037 14.9434 30.5916 14.9434C30.5796 14.9434 30.5716 14.9474 30.5596 14.9474C30.5476 14.9474 30.5356 14.9514 30.5276 14.9554C30.5155 14.9594 30.5076 14.9594 30.4955 14.9634C30.4835 14.9673 30.4755 14.9713 30.4635 14.9713C30.4515 14.9753 30.4435 14.9793 30.4315 14.9834C30.4194 14.9873 30.4115 14.9913 30.3994 14.9954C30.3874 14.9994 30.3794 15.0034 30.3715 15.0114C30.3635 15.0154 30.3515 15.0234 30.3435 15.0274C30.3315 15.0314 30.3235 15.0395 30.3155 15.0474C30.3076 15.0514 30.2995 15.0595 30.2915 15.0634C30.2795 15.0714 30.2715 15.0795 30.2595 15.0874C30.2555 15.0914 30.2515 15.0954 30.2475 15.0995L27.8075 17.1474L25.3915 15.1034C25.3875 15.0995 25.3835 15.0995 25.3835 15.0955C25.3715 15.0834 25.3595 15.0755 25.3435 15.0675C25.3395 15.0635 25.3315 15.0595 25.3275 15.0555C25.3155 15.0475 25.3035 15.0395 25.2915 15.0315C25.2835 15.0275 25.2755 15.0235 25.2715 15.0195C25.2594 15.0115 25.2475 15.0074 25.2355 15.0034C25.2275 14.9995 25.2194 14.9955 25.2115 14.9914C25.1994 14.9874 25.1875 14.9834 25.1755 14.9794C25.1675 14.9754 25.1555 14.9754 25.1475 14.9714C25.1355 14.9674 25.1235 14.9634 25.1115 14.9634C25.0994 14.9595 25.0915 14.9595 25.0794 14.9555C25.0674 14.9515 25.0555 14.9515 25.0474 14.9515C25.0354 14.9515 25.0234 14.9475 25.0114 14.9475C24.9994 14.9475 24.9914 14.9475 24.9794 14.9475C24.9673 14.9475 24.9554 14.9475 24.9433 14.9475C24.9354 14.9475 24.9313 14.9475 24.9233 14.9475C24.1954 14.9835 23.4833 15.2035 22.8633 15.5875C22.5433 15.7835 22.4433 16.2035 22.6394 16.5235C22.7673 16.7315 22.9914 16.8475 23.2194 16.8475C23.3394 16.8475 23.4633 16.8155 23.5754 16.7475C23.9274 16.5315 24.3274 16.3875 24.7354 16.3315L27.3674 18.5595C27.3714 18.5634 27.3794 18.5674 27.3834 18.5715C27.3914 18.5795 27.3994 18.5835 27.4074 18.5875C27.4194 18.5955 27.4314 18.6035 27.4434 18.6115C27.4514 18.6155 27.4555 18.6195 27.4634 18.6235C27.4834 18.6355 27.5034 18.6435 27.5234 18.6555C27.5274 18.6555 27.5274 18.6555 27.5314 18.6595C27.5514 18.6675 27.5674 18.6755 27.5874 18.6835C27.5914 18.6835 27.5994 18.6875 27.6034 18.6875C27.6194 18.6915 27.6355 18.6955 27.6514 18.6995C27.6594 18.6995 27.6634 18.7035 27.6714 18.7035C27.6874 18.7075 27.7034 18.7115 27.7234 18.7115C27.7274 18.7115 27.7355 18.7115 27.7394 18.7155C27.7634 18.7195 27.7834 18.7195 27.8074 18.7195C27.8314 18.7195 27.8514 18.7195 27.8754 18.7155C27.8794 18.7155 27.8874 18.7155 27.8914 18.7115C27.9074 18.7075 27.9234 18.7075 27.9434 18.7035C27.9514 18.7035 27.9555 18.6995 27.9634 18.6995C27.9794 18.6955 27.9955 18.6916 28.0114 18.6875C28.0154 18.6875 28.0234 18.6835 28.0274 18.6835C28.0474 18.6755 28.0674 18.6675 28.0834 18.6595C28.0834 18.6595 28.0874 18.6595 28.0874 18.6555C28.1074 18.6476 28.1274 18.6355 28.1474 18.6235C28.1554 18.6195 28.1594 18.6155 28.1674 18.6115C28.1794 18.6035 28.1914 18.5955 28.2034 18.5875C28.2114 18.5835 28.2194 18.5755 28.2274 18.5715C28.2314 18.5675 28.2394 18.5635 28.2434 18.5595L30.9074 16.3274C32.2274 16.5074 33.2834 17.5474 33.4674 18.8834V18.8874V18.8914C33.6834 20.3354 33.6754 21.7714 33.4394 23.1514H31.9155L32.0034 19.7554C32.0114 19.4474 31.7674 19.1874 31.4594 19.1794C31.1515 19.1713 30.8915 19.4154 30.8834 19.7234L30.7955 23.1473H27.0755C26.6994 23.1473 26.3955 23.4513 26.3955 23.8273C26.3955 24.2034 26.6994 24.5073 27.0755 24.5073H33.5355C34.1394 24.5073 34.6555 24.0753 34.7634 23.4794C35.0356 21.9234 35.0516 20.3114 34.8076 18.6914Z" fill="currentColor"/>
</g>
<defs>
<clipPath id="clip0_5115_6945">
<rect width="29.899" height="29.899" fill="white" transform="translate(5.07812 5.07812)"/>
</clipPath>
</defs>
</svg>
