<svg width="1em" height="1em" viewBox="0 0 40 40" fill="none" xmlns="http://www.w3.org/2000/svg">
<path d="M33.8982 14.3866C33.8969 13.2566 33.4474 12.1733 32.6484 11.3743C31.8493 10.5753 30.7659 10.126 29.636 10.1248H25.3955C25.0884 10.124 24.7823 10.1606 24.484 10.2337C23.6865 10.0209 22.8456 10.0339 22.0552 10.2714C21.2647 10.5088 20.5558 10.9612 20.0075 11.5781C19.4568 10.9595 18.745 10.5062 17.9515 10.2689C17.158 10.0315 16.3141 10.0195 15.5142 10.2341C15.2167 10.1611 14.9116 10.1244 14.6053 10.1248H10.3791C9.24941 10.1261 8.16636 10.5753 7.36744 11.374C6.56852 12.1727 6.11894 13.2556 6.11729 14.3852L6.10352 21.2972C6.10352 22.027 6.46218 22.675 7.06618 23.0355C7.29711 23.1726 7.55373 23.2609 7.82015 23.2948C8.08658 23.3288 8.35714 23.3076 8.61507 23.2328V33.9781C8.61505 34.4491 8.7543 34.9096 9.0153 35.3017C9.2763 35.6938 9.64741 36 10.0819 36.1817C10.5165 36.3634 10.9951 36.4126 11.4575 36.3231C11.9199 36.2336 12.3455 36.0093 12.6808 35.6786C13.0162 36.0093 13.4418 36.2336 13.9042 36.3231C14.3666 36.4126 14.8452 36.3634 15.2798 36.1817C15.7143 36 16.0854 35.6938 16.3464 35.3017C16.6074 34.9096 16.7466 34.4491 16.7466 33.9781V21.4026L17.2008 21.8052L17.2044 21.8083L17.2075 21.811C17.9999 22.4878 18.701 23.2647 19.2933 24.1221C19.2947 24.1241 19.2962 24.1261 19.2977 24.1279C19.3775 24.2429 19.4841 24.3368 19.6082 24.4014C19.7324 24.4661 19.8704 24.4995 20.0104 24.499C20.1503 24.4984 20.2881 24.4638 20.4117 24.3981C20.5353 24.3325 20.6411 24.2378 20.72 24.1221C21.296 23.2748 21.9789 22.5053 22.752 21.8328C22.4643 22.9699 22.0467 24.0702 21.5075 25.1119C21.4392 25.2435 21.4003 25.3884 21.3936 25.5365C21.3869 25.6846 21.4124 25.8325 21.4686 25.9697C21.5247 26.107 21.61 26.2304 21.7185 26.3314C21.8271 26.4324 21.9563 26.5085 22.0973 26.5546C22.8431 26.7992 23.6051 26.9912 24.3777 27.1292L25.0142 34.3421C25.0142 34.3421 25.0142 34.3457 25.0142 34.3475C25.0142 34.3492 25.0142 34.351 25.0142 34.3528C25.1324 35.4999 26.1195 36.3648 27.3097 36.3648C28.4848 36.3648 29.4933 35.4795 29.6053 34.3497C29.6053 34.347 29.6053 34.3443 29.6053 34.3421L30.2453 27.1332C31.0232 26.9952 31.7903 26.8022 32.5409 26.5555C32.6818 26.5094 32.811 26.4332 32.9195 26.3321C33.028 26.2311 33.1132 26.1077 33.1693 25.9705C33.2254 25.8332 33.2509 25.6854 33.2442 25.5373C33.2374 25.3892 33.1985 25.2444 33.1302 25.1128C32.8219 24.517 32.5546 23.9009 32.3302 23.2688C32.543 23.2249 32.7471 23.146 32.9342 23.0355C33.528 22.683 33.8968 22.0177 33.8968 21.2986L33.8982 14.3866ZM15.3244 33.9781C15.3214 34.2338 15.2184 34.478 15.0375 34.6586C14.8565 34.8392 14.612 34.9418 14.3564 34.9443C14.1012 34.9449 13.8562 34.8443 13.675 34.6645C13.4939 34.4847 13.3915 34.2404 13.3902 33.9852V22.1186C13.3902 21.93 13.3153 21.7491 13.1819 21.6157C13.0485 21.4824 12.8677 21.4075 12.6791 21.4075C12.4905 21.4075 12.3096 21.4824 12.1762 21.6157C12.0429 21.7491 11.968 21.93 11.968 22.1186V33.9852C11.9668 34.2405 11.8644 34.4848 11.6832 34.6646C11.5021 34.8445 11.257 34.9451 11.0017 34.9443C10.7464 34.9413 10.5024 34.8386 10.3218 34.658C10.1413 34.4775 10.0385 34.2334 10.0355 33.9781V15.367C10.0355 15.1784 9.9606 14.9975 9.82724 14.8642C9.69388 14.7308 9.513 14.6559 9.3244 14.6559C9.13581 14.6559 8.95493 14.7308 8.82157 14.8642C8.68821 14.9975 8.61329 15.1784 8.61329 15.367V21.2839V21.2999C8.61329 21.5221 8.51418 21.7128 8.34663 21.8119C8.2625 21.8619 8.16647 21.8882 8.06863 21.8882C7.97079 21.8882 7.87475 21.8619 7.79063 21.8119C7.62352 21.7128 7.52396 21.5217 7.52396 21.2999C7.52396 21.2999 7.53774 14.3883 7.53774 14.387C7.53891 13.6342 7.83844 12.9126 8.3707 12.3803C8.90295 11.8479 9.62452 11.5483 10.3773 11.547H13.3657C12.5947 12.3996 12.1837 13.5176 12.2191 14.6666V14.6901C12.2275 15.6461 12.524 16.6377 13.0773 17.5608C13.0783 17.5631 13.0795 17.5653 13.0808 17.5675L13.0835 17.5719C13.581 18.4377 14.2281 19.2084 14.9946 19.8483L15.324 20.1403L15.3244 33.9781ZM20.0062 22.6892C19.4505 21.9811 18.8271 21.3288 18.1448 20.7417L15.9342 18.7808L15.9142 18.7639C15.2688 18.2266 14.7251 17.5778 14.3088 16.8483C14.3066 16.8452 14.3048 16.8417 14.3026 16.8381C13.8728 16.1243 13.644 15.3715 13.6413 14.6603C13.6413 14.6528 13.6413 14.6452 13.6413 14.6381C13.6191 13.9673 13.8197 13.308 14.212 12.7634C14.6042 12.2187 15.1658 11.8194 15.8091 11.6278C16.4524 11.4362 17.141 11.4632 17.7673 11.7046C18.3936 11.9459 18.9222 12.388 19.2706 12.9617C19.3477 13.0882 19.4561 13.1928 19.5853 13.2654C19.7145 13.3379 19.8602 13.376 20.0084 13.376C20.1566 13.376 20.3023 13.3379 20.4315 13.2654C20.5607 13.1928 20.6691 13.0882 20.7462 12.9617C21.0939 12.3885 21.622 11.947 22.2477 11.7062C22.8733 11.4653 23.5612 11.4389 24.2035 11.631C24.8458 11.823 25.4062 12.2228 25.7969 12.7675C26.1876 13.3123 26.3866 13.9713 26.3626 14.6412V14.6635C26.3531 15.4316 26.1316 16.1821 25.7226 16.8323L25.7124 16.8488C25.2897 17.5791 24.7393 18.2276 24.0875 18.7635L24.0693 18.779L21.84 20.7443C21.165 21.3293 20.5506 21.9807 20.0062 22.6888V22.6892ZM28.1929 34.2123C28.1524 34.6163 27.7577 34.9448 27.3129 34.9448C26.868 34.9448 26.4751 34.6221 26.432 34.2092L25.8231 27.3235C26.3197 27.3679 26.8182 27.3904 27.3186 27.391C27.8143 27.391 28.308 27.3689 28.7995 27.3248L28.1929 34.2123ZM32.2093 21.8123C32.1251 21.8623 32.029 21.8887 31.9311 21.8887C31.8332 21.8887 31.7371 21.8623 31.6528 21.8123C31.4884 21.715 31.3862 21.5186 31.3862 21.299V15.3675C31.3862 15.1789 31.3113 14.998 31.1779 14.8646C31.0445 14.7313 30.8637 14.6563 30.6751 14.6563C30.4865 14.6563 30.3056 14.7313 30.1722 14.8646C30.0389 14.998 29.964 15.1789 29.964 15.3675V21.2995C29.9623 21.602 30.0282 21.9011 30.1567 22.1749C30.2853 22.4488 30.4733 22.6906 30.7071 22.8826C30.958 23.726 31.2748 24.5484 31.6546 25.3421C28.8239 26.1701 25.8152 26.1701 22.9844 25.3421C23.7505 23.7496 24.2618 22.0466 24.4995 20.2955L25.0035 19.851C25.7807 19.2097 26.4371 18.4347 26.9417 17.5626C27.4777 16.7 27.7686 15.7077 27.7831 14.6923C27.7831 14.6843 27.7831 14.6763 27.7831 14.6683C27.8176 13.5185 27.4055 12.4001 26.6333 11.5475H29.6364C30.3891 11.5487 31.1106 11.8483 31.6428 12.3806C32.1751 12.9128 32.4747 13.6343 32.476 14.387V21.299C32.4751 21.5181 32.3733 21.7146 32.2093 21.8119V21.8123Z" fill="currentColor"/>
<path d="M12.4997 9.16526C13.0469 9.16543 13.5818 9.00332 14.0369 8.69944C14.4919 8.39555 14.8466 7.96353 15.0561 7.45803C15.2656 6.95254 15.3204 6.39627 15.2137 5.85959C15.107 5.32291 14.8435 4.82994 14.4566 4.44302C14.0697 4.05611 13.5767 3.79263 13.04 3.68592C12.5034 3.57922 11.9471 3.63407 11.4416 3.84355C10.9361 4.05303 10.5041 4.40772 10.2002 4.86276C9.89631 5.3178 9.7342 5.85274 9.73438 6.39992C9.73543 7.13301 10.0271 7.83577 10.5455 8.35414C11.0639 8.87251 11.7666 9.1642 12.4997 9.16526ZM12.4997 5.05548C12.7655 5.0553 13.0255 5.13397 13.2466 5.28152C13.4677 5.42908 13.6401 5.63889 13.742 5.88443C13.8439 6.12998 13.8706 6.40022 13.8189 6.66097C13.7672 6.92173 13.6393 7.16129 13.4514 7.34936C13.2635 7.53743 13.0241 7.66556 12.7634 7.71754C12.5027 7.76952 12.2324 7.74302 11.9868 7.64139C11.7411 7.53976 11.5312 7.36756 11.3834 7.14658C11.2356 6.9256 11.1567 6.66576 11.1566 6.39992C11.1568 6.04366 11.2984 5.70203 11.5502 5.44999C11.802 5.19795 12.1434 5.05607 12.4997 5.05548Z" fill="currentColor"/>
<path d="M27.5143 9.16526C28.0614 9.16526 28.5963 9.003 29.0512 8.699C29.5061 8.39501 29.8607 7.96293 30.07 7.45742C30.2794 6.95191 30.3341 6.39566 30.2273 5.85905C30.1205 5.32243 29.8569 4.82953 29.47 4.44271C29.083 4.05588 28.59 3.79249 28.0534 3.68586C27.5167 3.57922 26.9605 3.63413 26.4551 3.84364C25.9496 4.05314 25.5177 4.40783 25.2138 4.86285C24.91 5.31787 24.7479 5.85278 24.748 6.39992C24.7491 7.13317 25.0409 7.83606 25.5595 8.35446C26.078 8.87285 26.781 9.16444 27.5143 9.16526ZM27.5143 5.05548C27.7801 5.05548 28.0399 5.13429 28.2609 5.28195C28.4819 5.42962 28.6542 5.63949 28.7559 5.88505C28.8577 6.13061 28.8843 6.40082 28.8325 6.66152C28.7807 6.92222 28.6527 7.1617 28.4648 7.34967C28.2769 7.53765 28.0374 7.66569 27.7767 7.7176C27.5161 7.76951 27.2458 7.74296 27.0003 7.6413C26.7547 7.53965 26.5447 7.36745 26.397 7.14649C26.2493 6.92553 26.1704 6.66572 26.1703 6.39992C26.1705 6.04351 26.3122 5.70174 26.5642 5.44968C26.8161 5.19761 27.1579 5.05583 27.5143 5.05548Z" fill="currentColor"/>
</svg>
