<svg width="1em" height="1em" viewBox="0 0 40 40" fill="none" xmlns="http://www.w3.org/2000/svg">
<path d="M35.3237 29.6556H31.0348L30.2925 22.0067C30.2737 21.7824 30.2396 21.5597 30.1903 21.34L28.6037 14.4645C28.4246 13.6887 27.9878 12.9965 27.3646 12.5009C26.7415 12.0053 25.9688 11.7355 25.1725 11.7356H21.2792C20.8673 11.7364 20.4598 11.8202 20.081 11.9821C19.7022 12.144 19.36 12.3806 19.0748 12.6778L19.0703 12.6823L19.0659 12.6867L17.137 14.7556L11.7325 16.1778C11.4651 16.2494 11.2144 16.3729 10.9947 16.5415C10.7751 16.71 10.5909 16.9202 10.4525 17.16C10.3127 17.3993 10.2222 17.6641 10.1864 17.9389C10.1505 18.2137 10.17 18.4929 10.2437 18.76C10.257 18.8089 10.2703 18.8534 10.2881 18.9023C9.93574 18.9314 9.58547 18.9819 9.23921 19.0534C9.21609 19.0578 9.19224 19.0565 9.16975 19.0495C9.14727 19.0425 9.12686 19.0301 9.11032 19.0134C8.76358 18.6386 8.32457 18.3613 7.83714 18.2092C7.34971 18.0571 6.83091 18.0356 6.33254 18.1467C5.83837 18.2607 5.38334 18.5038 5.01397 18.8513C4.64461 19.1988 4.37417 19.6382 4.23032 20.1245C3.53719 22.4612 3.30696 24.9107 3.55254 27.3356C3.58841 27.6991 3.55216 28.0661 3.44588 28.4156L2.41032 31.8334V31.8423C2.2469 32.3822 2.30281 32.9648 2.56594 33.4638C2.82907 33.9628 3.27823 34.338 3.81609 34.5081C4.35395 34.6782 4.93718 34.6296 5.43941 34.3727C5.94164 34.1158 6.32241 33.6713 6.49921 33.1356C6.50715 33.117 6.51311 33.0976 6.51699 33.0778L7.07699 31.0245L8.43699 33.5712C8.44588 33.5845 8.45477 33.6023 8.46365 33.6156C9.04143 34.5845 10.3303 34.9489 11.3259 34.4112C12.3037 33.8823 12.8459 32.5489 12.2281 31.5534C12.2059 31.5178 12.1837 31.4823 12.157 31.4467C11.1659 30.1223 10.4503 28.7045 10.0325 27.2423C9.7081 26.0112 9.84588 24.7312 9.9881 23.3756C9.99699 23.2912 10.0103 23.2067 10.0148 23.1223C10.0166 23.0913 10.0291 23.062 10.0502 23.0393C10.0713 23.0166 10.0996 23.0019 10.1303 22.9978C11.037 22.8645 11.877 22.8645 12.6237 23.0023H12.6281C12.9615 23.065 13.3061 23.0231 13.6148 22.8823H13.6192C13.8968 22.7579 14.1429 22.5726 14.3391 22.3401C14.5354 22.1076 14.6767 21.8339 14.7527 21.5393C14.8287 21.2447 14.8374 20.9368 14.7781 20.6384C14.7188 20.34 14.5931 20.0588 14.4103 19.8156L18.5614 18.6778C19.1361 18.5209 19.6581 18.2124 20.0725 17.7845L21.7437 16.0645L21.7481 16.06C21.7546 16.0527 21.7632 16.0475 21.7727 16.0452C21.7822 16.0428 21.7922 16.0433 21.8014 16.0467C21.8109 16.0496 21.8195 16.0547 21.8264 16.0617C21.8334 16.0687 21.8386 16.0773 21.8414 16.0867L23.0459 21.3178L18.8059 22.3267C18.1366 22.4833 17.5403 22.8621 17.1141 23.4013C16.6879 23.9405 16.457 24.6083 16.4592 25.2956V32.2556C16.4592 33.5889 17.5792 34.6734 18.957 34.6734C20.2681 34.6734 21.4548 33.5845 21.4548 32.2556V26.9712H25.6192L26.2637 32.0023V32.0067C26.3564 32.7441 26.7151 33.4223 27.2723 33.9141C27.8296 34.4059 28.5471 34.6775 29.2903 34.6778H35.317C35.983 34.679 36.6222 34.4156 37.0939 33.9455C37.5657 33.4754 37.8314 32.8371 37.8325 32.1712C37.8337 31.5052 37.5703 30.866 37.1002 30.3942C36.6301 29.9225 35.9919 29.6568 35.3259 29.6556H35.3237ZM9.9281 21.5712C9.57657 21.6232 9.25344 21.794 9.01248 22.0551C8.77152 22.3163 8.62724 22.6521 8.60365 23.0067L8.58143 23.2112C8.43032 24.6378 8.27477 26.1134 8.66588 27.5978C8.66588 27.6023 8.66588 27.6023 8.67032 27.6067V27.6112C9.13699 29.2378 9.92365 30.8067 11.017 32.2689C11.097 32.38 11.0881 32.5178 11.0659 32.6156C11.0376 32.7265 10.9872 32.8305 10.9177 32.9213C10.8482 33.0122 10.761 33.0881 10.6614 33.1445C10.4961 33.2348 10.3018 33.2566 10.1206 33.205C9.93934 33.1535 9.78561 33.0328 9.69254 32.8689L7.61254 28.98C7.53675 28.8376 7.41997 28.7212 7.27732 28.6459C7.13467 28.5706 6.97269 28.5398 6.81235 28.5575C6.652 28.5752 6.50066 28.6406 6.37788 28.7453C6.25511 28.8499 6.16655 28.989 6.12365 29.1445V29.1534L5.15254 32.6778C5.11616 32.8001 5.04807 32.9105 4.95518 32.998C4.86228 33.0854 4.7479 33.1467 4.62365 33.1756C4.49885 33.2043 4.36871 33.1996 4.24625 33.1622C4.12379 33.1248 4.01332 33.0558 3.92588 32.9623C3.83894 32.8683 3.77869 32.7529 3.75134 32.6279C3.72399 32.5028 3.73054 32.3728 3.77032 32.2512V32.2467C3.77032 32.2423 3.77032 32.2423 3.77477 32.2378L4.81032 28.82C4.9735 28.2897 5.0294 27.7322 4.97477 27.18C4.74914 24.9365 4.96352 22.6704 5.60588 20.5089C5.67786 20.2652 5.81333 20.045 5.99842 19.8708C6.1835 19.6967 6.41155 19.5748 6.65921 19.5178C6.91163 19.4611 7.17452 19.4714 7.42171 19.5478C7.66889 19.6242 7.89175 19.7641 8.0681 19.9534C8.21439 20.1145 8.39278 20.2432 8.5918 20.3312C8.79081 20.4192 9.00604 20.4646 9.22365 20.4645C9.33138 20.4658 9.43886 20.4539 9.54365 20.4289C10.6059 20.2023 12.0503 20.2423 12.8725 20.3934C13.006 20.4167 13.1287 20.4818 13.2229 20.5792C13.3171 20.6766 13.3781 20.8014 13.397 20.9356C13.4125 21.0649 13.3864 21.1958 13.3224 21.3093C13.2585 21.4228 13.1601 21.5129 13.0414 21.5667C13.037 21.5667 13.0325 21.5712 13.0281 21.5756C13.0237 21.58 13.0192 21.58 13.0148 21.58C12.9873 21.5939 12.9556 21.5971 12.9259 21.5889C12.9197 21.5891 12.9135 21.5876 12.9081 21.5845C12.9037 21.5845 12.8992 21.58 12.8903 21.58C11.9814 21.4223 10.9903 21.4156 9.9281 21.5712ZM18.9592 33.2289C18.377 33.2289 17.8837 32.7712 17.8837 32.2334V25.2734C17.8822 24.9066 18.0055 24.5502 18.2332 24.2627C18.4609 23.9753 18.7796 23.7737 19.137 23.6912L23.5103 22.6512C23.6703 22.62 24.017 22.5445 24.2703 22.2289C24.3797 22.0921 24.4566 21.9321 24.4951 21.7612C24.5336 21.5903 24.5327 21.4128 24.4925 21.2423L23.2259 15.7489C23.1665 15.4902 23.0384 15.2522 22.8551 15.0601C22.6718 14.8681 22.4401 14.729 22.1844 14.6575C21.9287 14.5861 21.6585 14.585 21.4022 14.6542C21.1459 14.7235 20.913 14.8606 20.7281 15.0512L20.7237 15.0556L19.0525 16.7756V16.78C18.8167 17.0253 18.5187 17.2019 18.1903 17.2912L12.4614 18.8645C12.2858 18.9122 12.0984 18.8882 11.9405 18.7978C11.7825 18.7074 11.6669 18.5579 11.6192 18.3823C11.5715 18.2066 11.5955 18.0192 11.6859 17.8613C11.7763 17.7033 11.9258 17.5878 12.1014 17.54L17.6748 16.0734C17.7334 16.0578 17.7901 16.0354 17.8437 16.0067C17.8983 15.9794 17.9491 15.945 17.9948 15.9045C17.9992 15.9045 17.9992 15.9 18.0037 15.9L18.057 15.8467L20.1014 13.6556C20.2538 13.4969 20.4367 13.3706 20.6391 13.2843C20.8415 13.198 21.0592 13.1535 21.2792 13.1534H25.1725C25.6473 13.1524 26.1083 13.3128 26.4798 13.6084C26.8514 13.904 27.1113 14.3172 27.217 14.78L28.8037 21.6556C28.8345 21.7933 28.8568 21.9329 28.8703 22.0734C28.8703 22.0867 28.8748 22.1 28.8748 22.1134C28.9087 22.548 28.8524 22.9849 28.7095 23.3967C28.5666 23.8085 28.34 24.1863 28.0441 24.5064C27.7482 24.8265 27.3894 25.082 26.99 25.2568C26.5907 25.4316 26.1596 25.522 25.7237 25.5223H20.8481C20.7419 25.5222 20.6366 25.5431 20.5385 25.5837C20.4403 25.6243 20.3511 25.6839 20.276 25.759C20.2009 25.8342 20.1413 25.9234 20.1007 26.0215C20.06 26.1197 20.0392 26.2249 20.0392 26.3312V32.2289C20.0348 32.7623 19.5325 33.2289 18.9592 33.2289ZM35.3148 33.2289H29.297C28.9002 33.2294 28.517 33.0845 28.2197 32.8216C27.9225 32.5587 27.7318 32.1961 27.6837 31.8023L27.0348 26.7623C27.8712 26.5138 28.6181 26.0292 29.1859 25.3667C29.1859 25.3667 29.6703 30.3489 29.6703 30.3534C29.6748 30.38 29.6792 30.4067 29.6837 30.4289C29.7204 30.6121 29.8191 30.7771 29.9632 30.8961C30.1073 31.0151 30.2879 31.0808 30.4748 31.0823H35.3148C35.5994 31.0823 35.8724 31.1953 36.0737 31.3966C36.275 31.5979 36.3881 31.8709 36.3881 32.1556C36.3881 32.4403 36.275 32.7133 36.0737 32.9146C35.8724 33.1158 35.5994 33.2289 35.3148 33.2289Z" fill="currentColor"/>
<path d="M23.0878 10.5979C23.6363 10.5979 24.1725 10.4353 24.6286 10.1305C25.0846 9.82581 25.4401 9.39267 25.65 8.88591C25.8599 8.37915 25.9148 7.82153 25.8078 7.28355C25.7008 6.74558 25.4367 6.25142 25.0488 5.86356C24.661 5.4757 24.1668 5.21157 23.6288 5.10456C23.0909 4.99755 22.5332 5.05247 22.0265 5.26238C21.5197 5.47229 21.0866 5.82775 20.7818 6.28382C20.4771 6.73989 20.3145 7.27609 20.3145 7.8246C20.3154 8.55985 20.6079 9.26471 21.1278 9.78461C21.6477 10.3045 22.3525 10.597 23.0878 10.5979ZM23.0878 6.46905C23.3554 6.46861 23.6172 6.54755 23.84 6.69589C24.0628 6.84423 24.2366 7.05531 24.3395 7.30243C24.4423 7.54955 24.4696 7.82162 24.4178 8.08422C24.366 8.34683 24.2375 8.58818 24.0485 8.77776C23.8596 8.96734 23.6186 9.09662 23.3562 9.14927C23.0938 9.20192 22.8216 9.17557 22.5742 9.07355C22.3267 8.97152 22.1151 8.79841 21.966 8.5761C21.8169 8.35379 21.7371 8.09227 21.7367 7.8246C21.7364 7.64688 21.7711 7.47084 21.8388 7.30654C21.9066 7.14223 22.006 6.99288 22.1315 6.867C22.2569 6.74113 22.406 6.6412 22.5701 6.57291C22.7341 6.50463 22.9101 6.46934 23.0878 6.46905Z" fill="currentColor"/>
<path d="M7.1295 17.0424C7.64724 17.0424 8.15336 16.8889 8.58386 16.6013C9.01435 16.3136 9.34987 15.9048 9.54801 15.4264C9.74614 14.9481 9.79798 14.4218 9.69697 13.914C9.59597 13.4062 9.34665 12.9397 8.98055 12.5736C8.61444 12.2075 8.148 11.9582 7.6402 11.8572C7.1324 11.7562 6.60605 11.808 6.12772 12.0062C5.64938 12.2043 5.24054 12.5398 4.95289 12.9703C4.66525 13.4008 4.51172 13.9069 4.51172 14.4247C4.51219 15.1188 4.78814 15.7844 5.27897 16.2752C5.76979 16.766 6.43536 17.042 7.1295 17.0424ZM7.1295 13.2291C7.36595 13.2291 7.5971 13.2992 7.79371 13.4306C7.99032 13.562 8.14356 13.7487 8.23405 13.9671C8.32453 14.1856 8.34821 14.426 8.30208 14.6579C8.25595 14.8898 8.14208 15.1028 7.97488 15.27C7.80768 15.4373 7.59465 15.5511 7.36274 15.5972C7.13082 15.6434 6.89044 15.6197 6.67198 15.5292C6.45352 15.4387 6.2668 15.2855 6.13543 15.0889C6.00406 14.8923 5.93394 14.6611 5.93394 14.4247C5.93511 14.1079 6.06145 13.8045 6.2854 13.5806C6.50936 13.3566 6.81278 13.2303 7.1295 13.2291Z" fill="currentColor"/>
</svg>
